<svg width="24" height="25" viewBox="0 0 24 25" fill="none" xmlns="http://www.w3.org/2000/svg">
<g clip-path="url(#clip0_509_189)">
<rect width="24" height="24" transform="translate(0 0.368774)" fill="#1877F2"/>
<path d="M23.5 12.4386C23.5 6.08734 18.3513 0.938623 12 0.938623C5.64872 0.938623 0.5 6.08734 0.5 12.4386C0.5 18.1786 4.70538 22.9362 10.2031 23.7989V15.7628H7.2832V12.4386H10.2031V9.90503C10.2031 7.02284 11.92 5.43081 14.5468 5.43081C15.805 5.43081 17.1211 5.65542 17.1211 5.65542V8.4855H15.671C14.2424 8.4855 13.7969 9.37196 13.7969 10.2814V12.4386H16.9863L16.4765 15.7628H13.7969V23.7989C19.2946 22.9362 23.5 18.1786 23.5 12.4386Z" fill="white"/>
</g>
<defs>
<clipPath id="clip0_509_189">
<rect width="24" height="24" fill="white" transform="translate(0 0.368774)"/>
</clipPath>
</defs>
</svg>
