<svg width="24" height="25" viewBox="0 0 24 25" fill="none" xmlns="http://www.w3.org/2000/svg">
<rect width="24" height="24" transform="translate(0 0.617493)" fill="white"/>
<path fill-rule="evenodd" clip-rule="evenodd" d="M23.04 12.8789C23.04 12.0634 22.9668 11.2793 22.8309 10.5266H12V14.975H18.1891C17.9225 16.4125 17.1123 17.6304 15.8943 18.4459V21.3314H19.6109C21.7855 19.3293 23.04 16.3811 23.04 12.8789Z" fill="#4285F4"/>
<path fill-rule="evenodd" clip-rule="evenodd" d="M11.9999 24.1173C15.1049 24.1173 17.7081 23.0875 19.6108 21.3312L15.8942 18.4457C14.8645 19.1357 13.5472 19.5435 11.9999 19.5435C9.00469 19.5435 6.46946 17.5205 5.56514 14.8023H1.7231V17.7819C3.61537 21.5403 7.50446 24.1173 11.9999 24.1173Z" fill="#34A853"/>
<path fill-rule="evenodd" clip-rule="evenodd" d="M5.56523 14.8025C5.33523 14.1125 5.20455 13.3755 5.20455 12.6175C5.20455 11.8596 5.33523 11.1225 5.56523 10.4325V7.453H1.72318C0.944318 9.0055 0.5 10.7619 0.5 12.6175C0.5 14.4732 0.944318 16.2296 1.72318 17.7821L5.56523 14.8025Z" fill="#FBBC05"/>
<path fill-rule="evenodd" clip-rule="evenodd" d="M11.9999 5.69136C13.6883 5.69136 15.2042 6.27158 16.3961 7.41113L19.6945 4.11272C17.7029 2.25704 15.0997 1.11749 11.9999 1.11749C7.50446 1.11749 3.61537 3.69454 1.7231 7.45295L5.56514 10.4325C6.46946 7.71431 9.00469 5.69136 11.9999 5.69136Z" fill="#EA4335"/>
</svg>
